<mxfile host="app.diagrams.net" agent="Mozilla/5.0 (X11; Ubuntu; Linux x86_64; rv:144.0) Gecko/20100101 Firefox/144.0" version="28.2.8">
  <diagram name="Page-1" id="HnTdixFQ7QrInAMxL7zL">
    <mxGraphModel dx="3890" dy="1357" grid="1" gridSize="10" guides="1" tooltips="1" connect="1" arrows="1" fold="1" page="1" pageScale="1" pageWidth="850" pageHeight="1100" math="0" shadow="0">
      <root>
        <mxCell id="0" />
        <mxCell id="1" parent="0" />
        <mxCell id="2-rvcAdQbdoXWS5n9E-W-3" style="edgeStyle=orthogonalEdgeStyle;rounded=0;orthogonalLoop=1;jettySize=auto;html=1;entryX=0.5;entryY=0;entryDx=0;entryDy=0;" edge="1" parent="1" source="2-rvcAdQbdoXWS5n9E-W-1" target="2-rvcAdQbdoXWS5n9E-W-2">
          <mxGeometry relative="1" as="geometry" />
        </mxCell>
        <mxCell id="2-rvcAdQbdoXWS5n9E-W-1" value="&lt;font&gt;Start&lt;/font&gt;" style="ellipse;whiteSpace=wrap;html=1;" vertex="1" parent="1">
          <mxGeometry x="280" y="30" width="120" height="80" as="geometry" />
        </mxCell>
        <mxCell id="2-rvcAdQbdoXWS5n9E-W-6" style="edgeStyle=orthogonalEdgeStyle;rounded=0;orthogonalLoop=1;jettySize=auto;html=1;entryX=0.5;entryY=0;entryDx=0;entryDy=0;" edge="1" parent="1" source="2-rvcAdQbdoXWS5n9E-W-2" target="2-rvcAdQbdoXWS5n9E-W-5">
          <mxGeometry relative="1" as="geometry" />
        </mxCell>
        <mxCell id="2-rvcAdQbdoXWS5n9E-W-2" value="declare nr_symbols, nr_numbers and nr_letters" style="rounded=0;whiteSpace=wrap;html=1;" vertex="1" parent="1">
          <mxGeometry x="270" y="140" width="140" height="80" as="geometry" />
        </mxCell>
        <mxCell id="2-rvcAdQbdoXWS5n9E-W-8" style="edgeStyle=orthogonalEdgeStyle;rounded=0;orthogonalLoop=1;jettySize=auto;html=1;entryX=0.5;entryY=0;entryDx=0;entryDy=0;" edge="1" parent="1" source="2-rvcAdQbdoXWS5n9E-W-5" target="2-rvcAdQbdoXWS5n9E-W-7">
          <mxGeometry relative="1" as="geometry" />
        </mxCell>
        <mxCell id="2-rvcAdQbdoXWS5n9E-W-5" value="Read nr_symbols, nr_numbers and nr_letters" style="shape=parallelogram;perimeter=parallelogramPerimeter;whiteSpace=wrap;html=1;fixedSize=1;" vertex="1" parent="1">
          <mxGeometry x="270" y="250" width="140" height="70" as="geometry" />
        </mxCell>
        <mxCell id="2-rvcAdQbdoXWS5n9E-W-10" value="yes" style="edgeStyle=orthogonalEdgeStyle;rounded=0;orthogonalLoop=1;jettySize=auto;html=1;entryX=1;entryY=0.5;entryDx=0;entryDy=0;" edge="1" parent="1" source="2-rvcAdQbdoXWS5n9E-W-7" target="2-rvcAdQbdoXWS5n9E-W-9">
          <mxGeometry relative="1" as="geometry">
            <Array as="points">
              <mxPoint x="850" y="420" />
              <mxPoint x="850" y="1710" />
            </Array>
          </mxGeometry>
        </mxCell>
        <mxCell id="2-rvcAdQbdoXWS5n9E-W-13" style="edgeStyle=orthogonalEdgeStyle;rounded=0;orthogonalLoop=1;jettySize=auto;html=1;entryX=0.5;entryY=0;entryDx=0;entryDy=0;" edge="1" parent="1" source="2-rvcAdQbdoXWS5n9E-W-7" target="2-rvcAdQbdoXWS5n9E-W-12">
          <mxGeometry relative="1" as="geometry" />
        </mxCell>
        <mxCell id="2-rvcAdQbdoXWS5n9E-W-7" value="if ( nr_symbols + nr_numbers ) &amp;gt;nr_letters" style="rhombus;whiteSpace=wrap;html=1;" vertex="1" parent="1">
          <mxGeometry x="230" y="360" width="220" height="120" as="geometry" />
        </mxCell>
        <mxCell id="2-rvcAdQbdoXWS5n9E-W-9" value="end" style="ellipse;whiteSpace=wrap;html=1;" vertex="1" parent="1">
          <mxGeometry x="340" y="1670" width="120" height="80" as="geometry" />
        </mxCell>
        <mxCell id="2-rvcAdQbdoXWS5n9E-W-16" style="edgeStyle=orthogonalEdgeStyle;rounded=0;orthogonalLoop=1;jettySize=auto;html=1;" edge="1" parent="1" source="2-rvcAdQbdoXWS5n9E-W-12" target="2-rvcAdQbdoXWS5n9E-W-15">
          <mxGeometry relative="1" as="geometry" />
        </mxCell>
        <mxCell id="2-rvcAdQbdoXWS5n9E-W-12" value="&lt;div&gt;declare password = [],&amp;nbsp;rem_letters&lt;/div&gt;" style="rounded=0;whiteSpace=wrap;html=1;" vertex="1" parent="1">
          <mxGeometry x="265" y="530" width="150" height="70" as="geometry" />
        </mxCell>
        <mxCell id="2-rvcAdQbdoXWS5n9E-W-19" style="edgeStyle=orthogonalEdgeStyle;rounded=0;orthogonalLoop=1;jettySize=auto;html=1;" edge="1" parent="1" source="2-rvcAdQbdoXWS5n9E-W-15" target="2-rvcAdQbdoXWS5n9E-W-17">
          <mxGeometry relative="1" as="geometry" />
        </mxCell>
        <mxCell id="2-rvcAdQbdoXWS5n9E-W-15" value="rem_letters = nr_letters - (nr_numbers + nr_symbols)" style="rounded=0;whiteSpace=wrap;html=1;" vertex="1" parent="1">
          <mxGeometry x="280" y="630" width="120" height="60" as="geometry" />
        </mxCell>
        <mxCell id="2-rvcAdQbdoXWS5n9E-W-20" value="yes" style="edgeStyle=orthogonalEdgeStyle;rounded=0;orthogonalLoop=1;jettySize=auto;html=1;entryX=0;entryY=0.5;entryDx=0;entryDy=0;" edge="1" parent="1" source="2-rvcAdQbdoXWS5n9E-W-17" target="2-rvcAdQbdoXWS5n9E-W-18">
          <mxGeometry relative="1" as="geometry" />
        </mxCell>
        <mxCell id="2-rvcAdQbdoXWS5n9E-W-25" value="&lt;div&gt;no&lt;/div&gt;" style="edgeStyle=orthogonalEdgeStyle;rounded=0;orthogonalLoop=1;jettySize=auto;html=1;entryX=0.5;entryY=0;entryDx=0;entryDy=0;" edge="1" parent="1" source="2-rvcAdQbdoXWS5n9E-W-17" target="2-rvcAdQbdoXWS5n9E-W-22">
          <mxGeometry relative="1" as="geometry" />
        </mxCell>
        <mxCell id="2-rvcAdQbdoXWS5n9E-W-17" value="while nr_numbers &amp;gt; 0" style="rhombus;whiteSpace=wrap;html=1;" vertex="1" parent="1">
          <mxGeometry x="245" y="720" width="180" height="200" as="geometry" />
        </mxCell>
        <mxCell id="2-rvcAdQbdoXWS5n9E-W-27" style="edgeStyle=orthogonalEdgeStyle;rounded=0;orthogonalLoop=1;jettySize=auto;html=1;entryX=1;entryY=0.5;entryDx=0;entryDy=0;" edge="1" parent="1" source="2-rvcAdQbdoXWS5n9E-W-18" target="2-rvcAdQbdoXWS5n9E-W-22">
          <mxGeometry relative="1" as="geometry" />
        </mxCell>
        <mxCell id="2-rvcAdQbdoXWS5n9E-W-18" value="&lt;div&gt;random_number = numbers[random_index];&lt;/div&gt;&lt;div&gt;password.append(random_number);&lt;/div&gt;&lt;div&gt;nr_numbers--&lt;/div&gt;" style="rounded=0;whiteSpace=wrap;html=1;" vertex="1" parent="1">
          <mxGeometry x="525" y="840" width="210" height="90" as="geometry" />
        </mxCell>
        <mxCell id="2-rvcAdQbdoXWS5n9E-W-24" value="yes" style="edgeStyle=orthogonalEdgeStyle;rounded=0;orthogonalLoop=1;jettySize=auto;html=1;entryX=0;entryY=0.5;entryDx=0;entryDy=0;" edge="1" parent="1" source="2-rvcAdQbdoXWS5n9E-W-22" target="2-rvcAdQbdoXWS5n9E-W-23">
          <mxGeometry relative="1" as="geometry" />
        </mxCell>
        <mxCell id="2-rvcAdQbdoXWS5n9E-W-32" value="no" style="edgeStyle=orthogonalEdgeStyle;rounded=0;orthogonalLoop=1;jettySize=auto;html=1;entryX=0.5;entryY=0;entryDx=0;entryDy=0;" edge="1" parent="1" source="2-rvcAdQbdoXWS5n9E-W-22" target="2-rvcAdQbdoXWS5n9E-W-28">
          <mxGeometry relative="1" as="geometry" />
        </mxCell>
        <mxCell id="2-rvcAdQbdoXWS5n9E-W-22" value="while nr_symbols &amp;gt; 0" style="rhombus;whiteSpace=wrap;html=1;" vertex="1" parent="1">
          <mxGeometry x="245" y="960" width="180" height="200" as="geometry" />
        </mxCell>
        <mxCell id="2-rvcAdQbdoXWS5n9E-W-30" style="edgeStyle=orthogonalEdgeStyle;rounded=0;orthogonalLoop=1;jettySize=auto;html=1;entryX=1;entryY=0.5;entryDx=0;entryDy=0;" edge="1" parent="1" source="2-rvcAdQbdoXWS5n9E-W-23" target="2-rvcAdQbdoXWS5n9E-W-28">
          <mxGeometry relative="1" as="geometry" />
        </mxCell>
        <mxCell id="2-rvcAdQbdoXWS5n9E-W-23" value="&lt;div&gt;random_symbol = symbols[random_index];&lt;/div&gt;&lt;div&gt;password.append(random_symbol);&lt;/div&gt;&lt;div&gt;nr_symbols--&lt;/div&gt;" style="rounded=0;whiteSpace=wrap;html=1;" vertex="1" parent="1">
          <mxGeometry x="560" y="1140" width="210" height="90" as="geometry" />
        </mxCell>
        <mxCell id="2-rvcAdQbdoXWS5n9E-W-31" value="yes" style="edgeStyle=orthogonalEdgeStyle;rounded=0;orthogonalLoop=1;jettySize=auto;html=1;entryX=0;entryY=0.5;entryDx=0;entryDy=0;" edge="1" parent="1" source="2-rvcAdQbdoXWS5n9E-W-28" target="2-rvcAdQbdoXWS5n9E-W-29">
          <mxGeometry relative="1" as="geometry" />
        </mxCell>
        <mxCell id="2-rvcAdQbdoXWS5n9E-W-44" value="no" style="edgeStyle=orthogonalEdgeStyle;rounded=0;orthogonalLoop=1;jettySize=auto;html=1;" edge="1" parent="1" source="2-rvcAdQbdoXWS5n9E-W-28" target="2-rvcAdQbdoXWS5n9E-W-42">
          <mxGeometry relative="1" as="geometry" />
        </mxCell>
        <mxCell id="2-rvcAdQbdoXWS5n9E-W-28" value="while rem_letters &amp;gt; 0" style="rhombus;whiteSpace=wrap;html=1;" vertex="1" parent="1">
          <mxGeometry x="245" y="1220" width="180" height="200" as="geometry" />
        </mxCell>
        <mxCell id="2-rvcAdQbdoXWS5n9E-W-43" style="edgeStyle=orthogonalEdgeStyle;rounded=0;orthogonalLoop=1;jettySize=auto;html=1;entryX=1;entryY=0.5;entryDx=0;entryDy=0;" edge="1" parent="1" source="2-rvcAdQbdoXWS5n9E-W-29" target="2-rvcAdQbdoXWS5n9E-W-42">
          <mxGeometry relative="1" as="geometry" />
        </mxCell>
        <mxCell id="2-rvcAdQbdoXWS5n9E-W-29" value="&lt;div&gt;random_char = letters[random_index];&lt;/div&gt;&lt;div&gt;password.append(random_char);&lt;/div&gt;&lt;div&gt;rem_letters--&lt;/div&gt;" style="rounded=0;whiteSpace=wrap;html=1;" vertex="1" parent="1">
          <mxGeometry x="550" y="1330" width="210" height="90" as="geometry" />
        </mxCell>
        <mxCell id="2-rvcAdQbdoXWS5n9E-W-35" style="edgeStyle=orthogonalEdgeStyle;rounded=0;orthogonalLoop=1;jettySize=auto;html=1;entryX=0.5;entryY=0;entryDx=0;entryDy=0;" edge="1" parent="1" source="2-rvcAdQbdoXWS5n9E-W-33" target="2-rvcAdQbdoXWS5n9E-W-34">
          <mxGeometry relative="1" as="geometry" />
        </mxCell>
        <mxCell id="2-rvcAdQbdoXWS5n9E-W-33" value="shuffle_array (password)" style="ellipse;whiteSpace=wrap;html=1;" vertex="1" parent="1">
          <mxGeometry x="-80" y="1210" width="120" height="80" as="geometry" />
        </mxCell>
        <mxCell id="2-rvcAdQbdoXWS5n9E-W-37" style="edgeStyle=orthogonalEdgeStyle;rounded=0;orthogonalLoop=1;jettySize=auto;html=1;entryX=0.5;entryY=0;entryDx=0;entryDy=0;" edge="1" parent="1" source="2-rvcAdQbdoXWS5n9E-W-34" target="2-rvcAdQbdoXWS5n9E-W-36">
          <mxGeometry relative="1" as="geometry" />
        </mxCell>
        <mxCell id="2-rvcAdQbdoXWS5n9E-W-39" style="edgeStyle=orthogonalEdgeStyle;rounded=0;orthogonalLoop=1;jettySize=auto;html=1;entryX=0.5;entryY=0;entryDx=0;entryDy=0;" edge="1" parent="1" source="2-rvcAdQbdoXWS5n9E-W-34" target="2-rvcAdQbdoXWS5n9E-W-38">
          <mxGeometry relative="1" as="geometry">
            <mxPoint x="209.99999999999977" y="1570" as="targetPoint" />
          </mxGeometry>
        </mxCell>
        <mxCell id="2-rvcAdQbdoXWS5n9E-W-34" value="&lt;div&gt;for curr = password.length - 1;&lt;/div&gt;&lt;div&gt;curr &amp;gt;=0;&lt;/div&gt;&lt;div&gt;curr--&lt;/div&gt;" style="rhombus;whiteSpace=wrap;html=1;" vertex="1" parent="1">
          <mxGeometry x="-140" y="1370" width="240" height="180" as="geometry" />
        </mxCell>
        <mxCell id="2-rvcAdQbdoXWS5n9E-W-36" value="return password" style="ellipse;whiteSpace=wrap;html=1;" vertex="1" parent="1">
          <mxGeometry x="-60" y="1730" width="120" height="80" as="geometry" />
        </mxCell>
        <mxCell id="2-rvcAdQbdoXWS5n9E-W-40" style="edgeStyle=orthogonalEdgeStyle;rounded=0;orthogonalLoop=1;jettySize=auto;html=1;entryX=0;entryY=0.5;entryDx=0;entryDy=0;" edge="1" parent="1" source="2-rvcAdQbdoXWS5n9E-W-38" target="2-rvcAdQbdoXWS5n9E-W-36">
          <mxGeometry relative="1" as="geometry">
            <Array as="points">
              <mxPoint x="-140" y="1605" />
              <mxPoint x="-140" y="1680" />
              <mxPoint x="-60" y="1680" />
            </Array>
          </mxGeometry>
        </mxCell>
        <mxCell id="2-rvcAdQbdoXWS5n9E-W-38" value="&lt;div&gt;random_index = Math.random() *( curr - 1);&lt;/div&gt;&lt;div&gt;swap (password[curr],password[random_index]]&lt;/div&gt;" style="rounded=0;whiteSpace=wrap;html=1;" vertex="1" parent="1">
          <mxGeometry x="-540" y="1550" width="315" height="110" as="geometry" />
        </mxCell>
        <mxCell id="2-rvcAdQbdoXWS5n9E-W-45" style="edgeStyle=orthogonalEdgeStyle;rounded=0;orthogonalLoop=1;jettySize=auto;html=1;entryX=0.5;entryY=0;entryDx=0;entryDy=0;" edge="1" parent="1" source="2-rvcAdQbdoXWS5n9E-W-42" target="2-rvcAdQbdoXWS5n9E-W-9">
          <mxGeometry relative="1" as="geometry" />
        </mxCell>
        <mxCell id="2-rvcAdQbdoXWS5n9E-W-42" value="password = shuffle_array(password).join(&#39;&#39;)" style="rounded=0;whiteSpace=wrap;html=1;" vertex="1" parent="1">
          <mxGeometry x="275" y="1510" width="205" height="80" as="geometry" />
        </mxCell>
      </root>
    </mxGraphModel>
  </diagram>
</mxfile>
